<svg xmlns="http://www.w3.org/2000/svg" viewBox="0 0 320 220" role="img" aria-label="Green panda teacher connecting GDP growth to jobs on a classroom board">
  <defs>
    <linearGradient id="bg" x1="0%" y1="0%" x2="100%" y2="100%">
      <stop offset="0%" style="stop-color:#ecfdf5"/>
      <stop offset="100%" style="stop-color:#d1fae5"/>
    </linearGradient>
    <linearGradient id="fur" x1="0%" y1="0%" x2="100%" y2="100%">
      <stop offset="0%" style="stop-color:#4ade80"/>
      <stop offset="100%" style="stop-color:#166534"/>
    </linearGradient>
    <filter id="shadow" x="-20%" y="-20%" width="140%" height="140%">
      <feDropShadow dx="0" dy="3" stdDeviation="3" flood-color="#065f46" flood-opacity="0.18"/>
    </filter>
  </defs>
  <rect width="320" height="220" fill="url(#bg)"/>
  <path d="M8 155 C57 74 118 51 183 65 C238 77 274 120 320 104 L320 220 L8 220 Z" fill="#bbf7d0" opacity="0.4"/>
  <ellipse cx="160" cy="207" rx="122" ry="11" fill="#065f46" opacity="0.12"/>

  <g filter="url(#shadow)">
    <rect x="112" y="28" width="184" height="152" rx="16" fill="#2f8f3f"/>
    <rect x="123" y="39" width="162" height="130" rx="10" fill="#fffbeb"/>
    <text x="204" y="63" text-anchor="middle" font-family="system-ui,sans-serif" font-size="18" font-weight="800" fill="#065f46">GDP &amp; Jobs</text>
    <path d="M154 132 L154 88 L143 99 M154 88 L165 99" stroke="#059669" stroke-width="5" fill="none" stroke-linecap="round" stroke-linejoin="round"/>
    <text x="154" y="151" text-anchor="middle" font-family="system-ui,sans-serif" font-size="11" font-weight="700" fill="#64748b">GDP up</text>
    <path d="M185 109 L219 109" stroke="#16a34a" stroke-width="3" stroke-dasharray="5 4"/>
    <rect x="229" y="96" width="38" height="28" rx="5" fill="#047857"/>
    <rect x="240" y="88" width="17" height="10" rx="3" fill="#065f46"/>
    <text x="248" y="151" text-anchor="middle" font-family="system-ui,sans-serif" font-size="11" font-weight="700" fill="#64748b">Jobs</text>
  </g>

  <g filter="url(#shadow)">
    <ellipse cx="70" cy="157" rx="35" ry="45" fill="url(#fur)"/>
    <circle cx="70" cy="87" r="42" fill="#f8fff3"/>
    <circle cx="43" cy="58" r="18" fill="#166534"/>
    <circle cx="97" cy="58" r="18" fill="#166534"/>
    <ellipse cx="55" cy="87" rx="11" ry="16" fill="#065f46" transform="rotate(12 55 87)"/>
    <ellipse cx="85" cy="87" rx="11" ry="16" fill="#065f46" transform="rotate(-12 85 87)"/>
    <circle cx="55" cy="85" r="5" fill="#f0fdf4"/>
    <circle cx="85" cy="85" r="5" fill="#f0fdf4"/>
    <ellipse cx="70" cy="105" rx="11" ry="7" fill="#065f46"/>
    <path d="M59 117 Q70 126 82 117" stroke="#065f46" stroke-width="4" fill="none" stroke-linecap="round"/>
    <rect x="47" y="42" width="45" height="11" rx="4" fill="#065f46"/>
    <rect x="54" y="34" width="31" height="10" rx="3" fill="#047857"/>
    <path d="M103 129 L134 112" stroke="#166534" stroke-width="14" stroke-linecap="round"/>
    <path d="M125 116 L154 90" stroke="#92400e" stroke-width="4" stroke-linecap="round"/>
  </g>
</svg>
