<svg xmlns="http://www.w3.org/2000/svg" viewBox="0 0 320 220" role="img" aria-label="Green panda macroeconomist forecasting GDP on a classroom board">
  <defs>
    <linearGradient id="bg" x1="0%" y1="0%" x2="100%" y2="100%">
      <stop offset="0%" style="stop-color:#ecfdf5"/>
      <stop offset="100%" style="stop-color:#d1fae5"/>
    </linearGradient>
    <linearGradient id="fur" x1="0%" y1="0%" x2="100%" y2="100%">
      <stop offset="0%" style="stop-color:#4ade80"/>
      <stop offset="100%" style="stop-color:#166534"/>
    </linearGradient>
    <filter id="shadow" x="-20%" y="-20%" width="140%" height="140%">
      <feDropShadow dx="0" dy="3" stdDeviation="3" flood-color="#065f46" flood-opacity="0.18"/>
    </filter>
  </defs>
  <rect width="320" height="220" fill="url(#bg)"/>
  <path d="M0 145 C39 76 96 44 162 52 C226 59 273 112 320 91 L320 220 L0 220 Z" fill="#bbf7d0" opacity="0.38"/>
  <ellipse cx="160" cy="207" rx="122" ry="11" fill="#065f46" opacity="0.12"/>

  <g filter="url(#shadow)">
    <rect x="112" y="28" width="184" height="152" rx="16" fill="#2f8f3f"/>
    <rect x="123" y="39" width="162" height="130" rx="10" fill="#fffbeb"/>
    <text x="204" y="63" text-anchor="middle" font-family="system-ui,sans-serif" font-size="17" font-weight="800" fill="#065f46">Macroeconomist</text>
    <line x1="144" y1="137" x2="266" y2="137" stroke="#047857" stroke-width="2.5" stroke-linecap="round"/>
    <line x1="144" y1="137" x2="144" y2="82" stroke="#047857" stroke-width="2.5" stroke-linecap="round"/>
    <polyline points="147,132 173,118 199,123 225,102 257,86" fill="none" stroke="#059669" stroke-width="4" stroke-linecap="round" stroke-linejoin="round"/>
    <circle cx="173" cy="118" r="4" fill="#047857"/>
    <circle cx="225" cy="102" r="4" fill="#047857"/>
    <text x="205" y="155" text-anchor="middle" font-family="system-ui,sans-serif" font-size="11" fill="#64748b">Forecast GDP</text>
  </g>

  <g filter="url(#shadow)">
    <ellipse cx="70" cy="158" rx="35" ry="44" fill="url(#fur)"/>
    <circle cx="70" cy="88" r="42" fill="#f8fff3"/>
    <circle cx="43" cy="59" r="18" fill="#166534"/>
    <circle cx="97" cy="59" r="18" fill="#166534"/>
    <ellipse cx="55" cy="88" rx="11" ry="16" fill="#065f46" transform="rotate(12 55 88)"/>
    <ellipse cx="85" cy="88" rx="11" ry="16" fill="#065f46" transform="rotate(-12 85 88)"/>
    <circle cx="55" cy="86" r="4" fill="#f0fdf4"/>
    <circle cx="85" cy="86" r="4" fill="#f0fdf4"/>
    <circle cx="55" cy="87" r="13" fill="none" stroke="#065f46" stroke-width="2"/>
    <circle cx="85" cy="87" r="13" fill="none" stroke="#065f46" stroke-width="2"/>
    <line x1="68" y1="87" x2="72" y2="87" stroke="#065f46" stroke-width="2"/>
    <ellipse cx="70" cy="106" rx="11" ry="7" fill="#065f46"/>
    <path d="M59 118 Q70 126 82 118" stroke="#065f46" stroke-width="4" fill="none" stroke-linecap="round"/>
    <path d="M103 129 L134 112" stroke="#166534" stroke-width="14" stroke-linecap="round"/>
    <path d="M125 116 L163 95" stroke="#92400e" stroke-width="4" stroke-linecap="round"/>
    <rect x="42" y="136" width="47" height="42" rx="6" fill="#065f46"/>
    <path d="M48 142 L83 142 L83 171 L48 171 Z" fill="#16a34a"/>
  </g>
</svg>
