<svg xmlns="http://www.w3.org/2000/svg" viewBox="0 0 320 220" role="img" aria-label="Green panda teacher pointing to a GDP classroom board">
  <defs>
    <linearGradient id="bg" x1="0%" y1="0%" x2="100%" y2="100%">
      <stop offset="0%" style="stop-color:#ecfdf5"/>
      <stop offset="100%" style="stop-color:#d1fae5"/>
    </linearGradient>
    <linearGradient id="pandaBody" x1="0%" y1="0%" x2="100%" y2="100%">
      <stop offset="0%" style="stop-color:#4ade80"/>
      <stop offset="100%" style="stop-color:#166534"/>
    </linearGradient>
    <filter id="shadow" x="-20%" y="-20%" width="140%" height="140%">
      <feDropShadow dx="0" dy="3" stdDeviation="3" flood-color="#065f46" flood-opacity="0.18"/>
    </filter>
  </defs>
  <rect width="320" height="220" fill="url(#bg)"/>
  <path d="M12 145 C40 72 110 28 190 42 C250 54 284 94 307 160 L307 220 L12 220 Z" fill="#bbf7d0" opacity="0.45"/>
  <circle cx="288" cy="35" r="18" fill="#bbf7d0" opacity="0.45"/>
  <ellipse cx="162" cy="206" rx="128" ry="12" fill="#065f46" opacity="0.12"/>

  <g filter="url(#shadow)">
    <rect x="110" y="28" width="188" height="152" rx="16" fill="#2f8f3f"/>
    <rect x="120" y="38" width="168" height="132" rx="10" fill="#fffbeb"/>
    <text x="204" y="66" text-anchor="middle" font-family="system-ui,sans-serif" font-size="26" font-weight="800" fill="#065f46">GDP</text>
    <line x1="142" y1="137" x2="272" y2="137" stroke="#047857" stroke-width="2.5" stroke-linecap="round"/>
    <line x1="142" y1="137" x2="142" y2="80" stroke="#047857" stroke-width="2.5" stroke-linecap="round"/>
    <polyline points="142,136 168,121 194,126 220,103 246,96 272,76" fill="none" stroke="#059669" stroke-width="4" stroke-linecap="round" stroke-linejoin="round"/>
    <circle cx="168" cy="121" r="4" fill="#047857"/>
    <circle cx="220" cy="103" r="4" fill="#047857"/>
    <circle cx="246" cy="96" r="4" fill="#047857"/>
    <path d="M267 75 L272 76 L270 82" stroke="#059669" stroke-width="4" fill="none" stroke-linecap="round"/>
    <rect x="139" y="146" width="35" height="14" rx="5" fill="#4ade80"/>
    <rect x="182" y="146" width="30" height="14" rx="5" fill="#22c55e"/>
    <rect x="220" y="146" width="30" height="14" rx="5" fill="#16a34a"/>
    <text x="156" y="157" text-anchor="middle" font-family="system-ui,sans-serif" font-size="10" font-weight="700" fill="#fff">C</text>
    <text x="197" y="157" text-anchor="middle" font-family="system-ui,sans-serif" font-size="10" font-weight="700" fill="#fff">I</text>
    <text x="235" y="157" text-anchor="middle" font-family="system-ui,sans-serif" font-size="10" font-weight="700" fill="#fff">G</text>
  </g>

  <g filter="url(#shadow)">
    <ellipse cx="72" cy="154" rx="38" ry="48" fill="url(#pandaBody)"/>
    <circle cx="72" cy="83" r="45" fill="#f8fff3"/>
    <circle cx="42" cy="52" r="20" fill="#166534"/>
    <circle cx="102" cy="52" r="20" fill="#166534"/>
    <ellipse cx="55" cy="83" rx="12" ry="18" fill="#065f46" transform="rotate(12 55 83)"/>
    <ellipse cx="89" cy="83" rx="12" ry="18" fill="#065f46" transform="rotate(-12 89 83)"/>
    <circle cx="56" cy="82" r="5" fill="#f0fdf4"/>
    <circle cx="90" cy="82" r="5" fill="#f0fdf4"/>
    <ellipse cx="72" cy="102" rx="12" ry="8" fill="#065f46"/>
    <path d="M60 115 Q72 126 85 115" stroke="#065f46" stroke-width="4" fill="none" stroke-linecap="round"/>
    <path d="M42 137 L18 163" stroke="#166534" stroke-width="16" stroke-linecap="round"/>
    <path d="M105 126 L138 105" stroke="#166534" stroke-width="14" stroke-linecap="round"/>
    <path d="M126 111 L151 78" stroke="#92400e" stroke-width="4" stroke-linecap="round"/>
    <rect x="47" y="128" width="44" height="44" rx="5" fill="#065f46"/>
    <path d="M52 136 L85 136 L85 166 L52 166 Z" fill="#16a34a"/>
    <text x="69" y="151" text-anchor="middle" font-family="system-ui,sans-serif" font-size="9" font-weight="800" fill="#f0fdf4">MACRO</text>
  </g>
</svg>
