<svg xmlns="http://www.w3.org/2000/svg" viewBox="0 0 96 100" role="img" aria-label="Markets and Headlines news tower">
  <title>Markets and Headlines Tower</title>
  <defs>
    <linearGradient id="towerRoof" x1="0%" y1="0%" x2="0%" y2="100%">
      <stop offset="0%" stop-color="#14b8a6"/>
      <stop offset="100%" stop-color="#0f766e"/>
    </linearGradient>
    <linearGradient id="towerWall" x1="0%" y1="0%" x2="100%" y2="100%">
      <stop offset="0%" stop-color="#f0fdfa"/>
      <stop offset="100%" stop-color="#ccfbf1"/>
    </linearGradient>
    <filter id="towerShadow" x="-20%" y="-20%" width="140%" height="140%">
      <feDropShadow dx="0" dy="2" stdDeviation="2" flood-opacity="0.25"/>
    </filter>
  </defs>
  <ellipse cx="48" cy="96" rx="28" ry="5" fill="rgba(19,78,74,0.25)"/>
  <g filter="url(#towerShadow)">
    <line x1="48" y1="4" x2="48" y2="14" stroke="#134e4a" stroke-width="2" stroke-linecap="round"/>
    <ellipse cx="48" cy="4" rx="8" ry="4" fill="none" stroke="#0f766e" stroke-width="1.5"/>
    <path d="M56 4 Q64 4 64 12" fill="none" stroke="#14b8a6" stroke-width="1" opacity="0.7"/>
    <path d="M60 4 Q70 4 70 14" fill="none" stroke="#14b8a6" stroke-width="1" opacity="0.5"/>
    <rect x="28" y="18" width="40" height="24" fill="url(#towerWall)" stroke="#134e4a" stroke-width="1.5"/>
    <polygon points="28,18 48,6 68,18" fill="url(#towerRoof)"/>
    <rect x="32" y="44" width="32" height="22" fill="url(#towerWall)" stroke="#134e4a" stroke-width="1.5"/>
    <rect x="36" y="68" width="24" height="22" fill="url(#towerWall)" stroke="#134e4a" stroke-width="1.5"/>
    <rect x="34" y="24" width="28" height="12" fill="#99f6e4" rx="1"/>
    <polyline points="38,32 44,26 50,30 58,22" fill="none" stroke="#059669" stroke-width="1.5" stroke-linecap="round"/>
    <rect x="36" y="48" width="10" height="10" fill="#99f6e4" rx="1"/>
    <rect x="50" y="48" width="10" height="10" fill="#99f6e4" rx="1"/>
    <rect x="40" y="72" width="16" height="14" fill="#134e4a" rx="2"/>
    <rect x="42" y="74" width="12" height="10" fill="#99f6e4" rx="1"/>
  </g>
</svg>
