<svg xmlns="http://www.w3.org/2000/svg" viewBox="0 0 96 100" role="img" aria-label="Ownership bank building">
  <title>Ownership Bank</title>
  <defs>
    <linearGradient id="bankRoof" x1="0%" y1="0%" x2="0%" y2="100%">
      <stop offset="0%" stop-color="#d97706"/>
      <stop offset="100%" stop-color="#92400e"/>
    </linearGradient>
    <linearGradient id="bankWall" x1="0%" y1="0%" x2="100%" y2="100%">
      <stop offset="0%" stop-color="#fffbeb"/>
      <stop offset="100%" stop-color="#fef3c7"/>
    </linearGradient>
    <filter id="bankShadow" x="-20%" y="-20%" width="140%" height="140%">
      <feDropShadow dx="0" dy="2" stdDeviation="2" flood-opacity="0.25"/>
    </filter>
  </defs>
  <ellipse cx="48" cy="96" rx="34" ry="5" fill="rgba(146,64,14,0.25)"/>
  <rect x="12" y="90" width="72" height="6" fill="#92400e" rx="1"/>
  <g filter="url(#bankShadow)">
    <rect x="10" y="30" width="76" height="8" fill="url(#bankRoof)" rx="1"/>
    <rect x="10" y="30" width="76" height="3" fill="#fbbf24" opacity="0.4" rx="1"/>
    <rect x="14" y="38" width="68" height="52" fill="url(#bankWall)" stroke="#92400e" stroke-width="1.5"/>
    <rect x="18" y="38" width="6" height="52" fill="#b45309" rx="2"/>
    <rect x="72" y="38" width="6" height="52" fill="#b45309" rx="2"/>
  </g>
  <circle cx="48" cy="66" r="16" fill="#92400e" stroke="#78350f" stroke-width="2"/>
  <circle cx="48" cy="66" r="12" fill="#fef3c7"/>
  <circle cx="48" cy="66" r="7" fill="#b45309"/>
  <g stroke="#92400e" stroke-width="1.2">
    <line x1="48" y1="61" x2="48" y2="55"/>
    <line x1="53" y1="66" x2="59" y2="66"/>
    <line x1="48" y1="71" x2="48" y2="77"/>
    <line x1="43" y1="66" x2="37" y2="66"/>
    <line x1="51.5" y1="62.5" x2="55.7" y2="58.3"/>
    <line x1="51.5" y1="69.5" x2="55.7" y2="73.7"/>
    <line x1="44.5" y1="69.5" x2="40.3" y2="73.7"/>
    <line x1="44.5" y1="62.5" x2="40.3" y2="58.3"/>
  </g>
  <rect x="26" y="42" width="44" height="10" fill="#b45309" rx="1"/>
  <rect x="28" y="44" width="40" height="6" fill="#92400e" rx="1"/>
  <circle cx="32" cy="47" r="2" fill="#fde68a" stroke="#92400e" stroke-width="0.5"/>
  <circle cx="48" cy="47" r="2" fill="#fde68a" stroke="#92400e" stroke-width="0.5"/>
  <circle cx="64" cy="47" r="2" fill="#fde68a" stroke="#92400e" stroke-width="0.5"/>
</svg>
